PathFileType	4	(X/Y/Z)	2_2_12_p0_0-439.trc
DataRate	CameraRate	NumFrames	NumMarkers	Units	OrigDataRate	OrigDataStartFrame	OrigNumFrames
60.0	60.0	5	27	m	60.0	220	440
Frame#	Time	RHip			RKnee			RAnkle			RBigToe			RSmallToe			RHeel			LHip			LKnee			LAnkle			LBigToe			LSmallToe			LHeel			Neck			Head			Nose			RShoulder			RElbow			RWrist			RThumb			RIndex			RPinky			LShoulder			LElbow			LWrist			LThumb			LIndex			LPinky			
		X1	Y1	Z1	X2	Y2	Z2	X3	Y3	Z3	X4	Y4	Z4	X5	Y5	Z5	X6	Y6	Z6	X7	Y7	Z7	X8	Y8	Z8	X9	Y9	Z9	X10	Y10	Z10	X11	Y11	Z11	X12	Y12	Z12	X13	Y13	Z13	X14	Y14	Z14	X15	Y15	Z15	X16	Y16	Z16	X17	Y17	Z17	X18	Y18	Z18	X19	Y19	Z19	X20	Y20	Z20	X21	Y21	Z21	X22	Y22	Z22	X23	Y23	Z23	X24	Y24	Z24	X25	Y25	Z25	X26	Y26	Z26	X27	Y27	Z27	
220	3.6666666666666665	0.35092097030510866	0.6161067885090414	0.9713577100684285	0.3371742429048288	0.7117053421744233	1.3810875329994616	0.2894938474782645	0.9134410290368103	1.8161271150717142	0.3014865865010677	0.6717336995611574	1.8785354472106768	0.3567272323787702	0.7773100389217772	1.9064768210013934	0.27558201131269583	0.9333191830491459	1.8448434252026937	0.14823526564717063	0.6359076792251501	0.9723333724992487	0.14345303177992144	0.7671384208009049	1.3863342277293071	0.13008171071657693	0.9417414788671156	1.814702909937183	0.12638554900355006	0.7144754656796688	1.9077280370200196	0.08256025578327043	0.7272262336058674	1.8713293910531714	0.12360084746188091	1.0014908785222332	1.8734116217423507	0.24696215394359367	0.4294351502003534	0.4124555295668038	0.24177307294626543	0.2370429108954312	0.19312403556247915	0.24435191318445068	0.26189443197281526	0.3341739179070242	0.4121026413657998	0.4228108549962522	0.47474154120055495	0.5720859637346246	0.592431073857988	0.672039000220278	0.47925691295295014	0.4550157771369727	0.9060718291885312	0.3786458624406832	0.42940450274644104	0.9648019646517926	0.3801704241084646	0.4321890477995747	0.9937606118659833	0.4179415639001843	0.4814319762164917	1.0057121198684087	0.10507833418635057	0.4364408179383348	0.45864702443416305	-0.052319310818529884	0.577546650124278	0.6778164183175148	-0.01745142128996124	0.39396223692210214	0.6481393431510823	0.05323843845458661	0.29701649865797797	0.5754326852518828	0.039177399156747075	0.28250901355207914	0.5920441765095901	0.028321644188849523	0.2005516378877065	0.6312401572710681
221	3.683333333333333	0.35096319103666956	0.6160217981195283	0.9714127943078358	0.33719305889040124	0.7116914224516933	1.3812031875684456	0.28950954761287007	0.9134629361617336	1.816171174518243	0.3014959932925134	0.6719164245155896	1.8786017129245922	0.3567102438939023	0.7773994450600302	1.9064276180984772	0.2760663358928489	0.9322140675214654	1.8486793597075737	0.14780948789299184	0.6369952649229872	0.9762515762646028	0.1434639769553354	0.7671852010291415	1.3864347062412907	0.1301352404259679	0.9417328797597033	1.8147814080564568	0.12579344194993694	0.7155413390123113	1.9037290199936117	0.0825884421644789	0.7271581279232587	1.8712587774573748	0.13058293096890883	0.9832347580455979	1.8678019116070783	0.24686378362680805	0.4294077555921514	0.4124545433696537	0.23688501829194536	0.24948691556992983	0.19350398538153832	0.24425279631328856	0.2618712698565322	0.33420330788595165	0.412101999901361	0.42276986703501424	0.47467219417038464	0.5720606452289642	0.5925205619252398	0.6720910867122017	0.47932086984471356	0.4549756851088341	0.9060504874176204	0.37867216422944033	0.4294901350937047	0.964652901267654	0.38013882259669896	0.4323411895915672	0.9937914134258393	0.41806258049228995	0.4819751093594522	1.0058685899386128	0.10492006533056228	0.4343238733958063	0.4554808367651268	-0.058909011268893655	0.5593727085742951	0.6768906701610428	-0.017670106014523554	0.39105185885963367	0.6329946007235199	0.07011037926179549	0.317923250878568	0.5633408549017432	0.04378609181321597	0.27916641034110173	0.5676568328782919	0.031808990718428104	0.19907368098496783	0.6229696452957062
222	3.7	0.3481561629137708	0.6025638702773628	0.9710565627862817	0.3379093353038525	0.7147276909931694	1.385643062170949	0.28950585205330087	0.9134514620518384	1.8161730270398622	0.2976117039393702	0.6703769036387209	1.8786033677108427	0.3566777851054488	0.7772712704532749	1.9064349316593843	0.27607311090237024	0.9321938636496295	1.8485889156524444	0.14796179685884006	0.6329008540925313	0.9680216626943084	0.1435031317441314	0.7671967724044033	1.3863649173283594	0.13015995449937012	0.9416118951780481	1.814767318395418	0.1264197621900743	0.7145512398114701	1.9076913202271841	0.08261246340401476	0.7272133226359578	1.87131861024585	0.13062336291353868	0.9831442106487078	1.8677465041954915	0.24669392940093596	0.43017874707081477	0.41564199902291105	0.2367849396513147	0.2493096863995413	0.19351914718941662	0.24421032304832302	0.2619700254509263	0.3341710747353576	0.4118756010917662	0.42255702546449675	0.4709905986957832	0.5759116720855819	0.5781360256012193	0.6727581637862702	0.4793753039644615	0.45511685521469825	0.9061959878216133	0.37881463582861663	0.4291098259991013	0.9643213757945698	0.38494996885164107	0.4201426563969727	0.9929005061077196	0.4181930926572294	0.48261465788660957	1.0059807284539828	0.10274946050376038	0.42209206073269956	0.4611385162799902	-0.06650196250973557	0.557081021415841	0.6722722027373277	-0.013206304655360447	0.4055049932893436	0.6219235670196577	0.068768367215587	0.35422246100369	0.5536081318806356	0.055496176676467286	0.29316110734145795	0.5558887869020068	0.0335138229975791	0.2089654121458725	0.614587318065775
223	3.716666666666667	0.34805735714829505	0.6025602740164879	0.971118583547512	0.33722360865333567	0.7118560850330561	1.381402497794024	0.28945843551301326	0.9134320363612051	1.8161903750875055	0.2975799046675858	0.6702289978958397	1.878649343719642	0.35282813092159804	0.7602776198209055	1.8982349574982846	0.2759876015288645	0.9321767844050957	1.848661643523538	0.14787529057266355	0.632928519421313	0.9679654378102751	0.1434650967616297	0.7673490602810399	1.3864591822707562	0.13014615227662338	0.9416376993928843	1.8147801375767116	0.12582745635206669	0.7157020981252614	1.9037004806793236	0.08268807572103866	0.7272171873999498	1.871285543999671	0.13052505913750118	0.9833810157085249	1.8680201040669244	0.24673477822198955	0.43007896104036747	0.4156360362892252	0.23673755397652838	0.24909146294058968	0.19349297042063096	0.24055327549751465	0.26058669854484495	0.33454600457974176	0.4118804270117255	0.42250234462919145	0.4710636162635354	0.5761166297231001	0.5770061565200221	0.6690224291844369	0.4797892496265121	0.45378999688898386	0.9025277119095596	0.37975865347451554	0.427123714289281	0.9567161644347953	0.3802422181980758	0.43222223459233505	0.9934956765884975	0.4181529361330527	0.4829582706325826	1.0062098098525942	0.09906060594883777	0.41949989732784526	0.4617103946151023	-0.07162702091096211	0.5382950723887885	0.6728881800116617	-0.01350382923577955	0.4033785136152455	0.6181989158431147	0.07746469710287113	0.38005893240420724	0.5461644535810211	0.0651026833760886	0.2939720112124425	0.5525292364029238	0.04408492774836146	0.2614091584630295	0.6101041293646783
224	3.7333333333333334	0.34859642607332314	0.6010554887974672	0.9666542992035247	0.33866325896571087	0.7133373733573964	1.3813325878436884	0.2894762859081394	0.9134180087745909	1.8161547326459235	0.29752146440049904	0.6703125135315261	1.8786599490753544	0.35266257243840243	0.7602230568223171	1.8981162131969767	0.2760572047530685	0.9322725176020784	1.8485157090837367	0.14848449422855697	0.6316106545552795	0.9640166894175918	0.1443541278367944	0.7656568600834582	1.3823033224369092	0.1300799059053229	0.9416600764967289	1.8147205613412738	0.1308916402675807	0.7159018566230602	1.907577844370477	0.08267055480332387	0.7272340007153918	1.8712369660859793	0.13057348632133625	0.9831973020085362	1.8677178368108855	0.24693061726656915	0.42962957667364365	0.4120013860511399	0.23671222566481565	0.24898771378467846	0.19355722582279472	0.2404928467742264	0.2611220606826419	0.33790060973647107	0.4119508875995322	0.4223946396176031	0.4710536875350567	0.5761615386778133	0.5769419498533104	0.6691041924078127	0.4842118789496454	0.4405544164586552	0.9020154520775849	0.3834171473765123	0.4283795962656289	0.9562999318253604	0.3799234174773774	0.4327779039974071	0.990299600625347	0.418204453869111	0.48273242850370707	1.0060603550497917	0.09913743065098499	0.41970473773231054	0.46168756352506923	-0.07444373273224135	0.532202408091853	0.6647743044379149	-0.006262057560186974	0.3864281424220825	0.6080580959417095	0.08886866548709677	0.3807821080388479	0.5399836130549938	0.08013387588986899	0.2773231627060231	0.5528993171172648	0.04769440258033113	0.2748454795501295	0.6123952428321822
